<svg width="200" height="200" viewBox="0 0 200 200" fill="none" xmlns="http://www.w3.org/2000/svg">
<path d="M118.92 187.412C62.3427 147.32 14.9919 142.775 9.83624 142.436L8.81868 142.096C3.86651 51.1258 77.4706 17.6139 151.482 31.9277C152.431 29.8926 153.788 28.468 154.941 27.179C156.502 25.4831 157.858 23.9907 158.469 21.2093C159.622 15.7144 162.607 14.9004 164.303 14.9004C168.984 14.9004 174.207 21.1415 175.225 27.9931C176.107 33.6915 175.835 37.4904 174.072 42.8496C174.682 43.3245 175.225 43.7993 175.835 44.342L175.903 44.4099L175.971 44.4777C178.278 46.7842 184.18 53.7715 187.843 59.4699C189.335 61.7763 188.725 64.422 186.011 67.4069C186.079 69.2385 185.672 71.0701 184.722 72.5626C187.232 76.7685 189.2 83.4166 190.963 89.3864C192.32 93.9993 194.22 100.308 195.441 101.258C198.29 103.497 199.782 106.007 199.986 108.72C200.257 113.333 196.526 117.132 194.559 119.167C193.948 119.778 193.338 121.813 192.863 123.441C192.184 125.747 191.506 127.986 190.217 129.207C190.556 131.31 190.76 135.245 188.657 137.348L188.046 137.958C184.044 141.961 180.855 145.149 174.75 145.149C174.479 145.149 174.207 145.149 173.936 145.149C173.597 145.149 173.325 145.149 173.054 145.149C171.833 145.149 170.815 145.217 169.73 145.353C168.78 145.42 167.898 145.488 167.017 145.488C163.76 145.488 161.386 144.267 158.944 141.418C158.265 140.672 157.044 139.993 155.755 139.315C152.771 137.687 148.632 135.516 147.818 130.021C146.597 129.004 144.901 127.85 142.934 126.561C138.118 123.305 132.284 119.371 128.552 113.876C126.517 114.758 123.532 115.64 120.751 115.64C120.548 115.64 120.344 115.64 120.073 115.64C114.307 124.662 112.068 136.534 113.492 151.051C114.442 161.227 117.224 172.759 121.769 185.309L123.804 190.872L118.92 187.412Z" fill="#011E41"/>
<path d="M182.009 98.1382C176.447 85.8596 168.306 74.0558 168.306 70.8674C168.442 61.5736 178.685 63.3374 174.14 58.4531C170.07 54.0436 163.897 48.1417 156.841 43.6644C146.327 37.8982 137.372 35.3204 129.231 33.6244C121.159 31.9285 108.88 32.132 102.775 32.0642C46.5371 31.5893 15.2638 77.8547 11.6006 127.58C50.6752 136.127 89.682 156.75 108.541 171.403C108.541 171.403 108.473 171.335 108.405 171.2C83.7801 127.241 87.579 80.4326 103.86 64.8977C97.619 86.4023 119.056 110.213 140.153 92.9147C144.97 102.751 152.5 100.784 155.62 105.736C151.957 111.502 155.892 112.52 164.711 117.879C170.545 121.407 175.972 122.153 180.653 120.457C188.59 110.688 187.572 110.349 182.009 98.1382ZM169.866 107.161C168.849 107.703 166.746 109.06 167.628 110.62C171.969 117.269 163.49 117.947 161.861 112.181C161.183 109.806 158.334 102.344 169.663 105.261C170.545 105.465 170.68 106.754 169.866 107.161Z" fill="white"/>
<path d="M85.4086 156.275C85.2729 155.801 85.1372 155.326 85.0694 154.851C81.2704 139.52 77.9464 122.289 77.9464 112.588C73.944 123.374 71.7731 132.397 70.3486 140.401C69.8737 142.979 69.5345 145.489 69.1953 147.864C75.0972 150.713 80.5242 153.494 85.4086 156.275Z" fill="#BBBBBB"/>
<path d="M43.1446 136.806C43.823 127.241 45.1798 118.557 47.1471 110.62C47.4184 109.467 47.7576 108.314 48.0968 107.161C48.5717 105.397 49.1144 103.633 49.7249 101.937C58.2046 76.2945 73.6038 59.8099 91.9879 48.5488C92.2592 48.4131 92.4627 48.2775 92.7341 48.0739C93.0055 47.8704 93.2768 47.7348 93.5482 47.5312C69.7371 52.9583 49.9963 72.0886 38.1246 96.7815C32.969 107.568 29.3057 119.372 27.4062 131.515C32.7654 133.21 38.0568 134.974 43.1446 136.806Z" fill="#BBBBBB"/>
<path d="M177.939 72.7677C177.328 71.9537 176.107 68.6974 177.939 67.4085C179.974 65.9839 181.534 65.0342 182.416 64.0845L182.484 64.0166C183.366 63.0669 183.434 62.1172 182.416 60.8961C180.042 57.9112 175.225 50.1777 167.221 44.615C166.067 43.0547 163.354 38.5774 163.015 39.1201C160.844 37.3563 156.909 36.5423 153.856 35.5926C151.754 34.9142 147.819 36.4745 157.723 43.9366C164.371 48.9566 170.002 54.1801 174.072 58.5896C178.617 63.4739 168.374 61.778 168.238 71.0039C168.17 74.1923 176.311 85.9961 181.941 98.2747C187.504 110.486 188.522 110.825 180.585 120.526C183.909 119.712 185.333 118.016 187.64 120.933C189.336 115.777 190.421 117.337 193.406 113.47C192.524 109.807 190.353 109.671 189.946 108.925C189.607 108.383 189.064 106.28 190.896 106.483C192.253 106.619 193.27 106.958 194.017 107.297C193.135 105.737 191.574 104.312 189.607 102.956C187.911 101.734 185.469 89.1166 181.467 79.6193C180.517 76.9058 179.296 74.5993 177.939 72.7677Z" fill="#BBBBBB"/>
<path d="M166.067 118.627C165.185 118.288 164.507 118.152 163.761 118.084C164.507 118.152 165.185 118.355 166.067 118.627Z" fill="white"/>
<path d="M157.994 120.119C158.333 119.915 158.673 119.78 159.012 119.576C158.74 119.712 158.401 119.915 157.994 120.119Z" fill="white"/>
<path d="M152.296 104.515C152.499 104.244 152.635 103.973 152.839 103.701C152.771 103.769 152.635 103.837 152.567 103.837C152.432 104.04 152.364 104.312 152.296 104.515Z" fill="white"/>
<path d="M166.407 118.761C166.271 118.693 166.135 118.693 166.067 118.625C166.203 118.693 166.339 118.693 166.407 118.761Z" fill="white"/>
<path d="M146.259 69.7141C144.834 70.4603 138.797 71.6136 135.608 66.7971C134.726 65.4403 134.998 63.4052 135.133 61.8449C134.93 61.4379 134.252 60.8952 133.37 60.2168C129.435 72.8346 140.696 73.7844 145.241 74.5984C149.854 75.4125 153.382 80.5003 157.656 85.7238C162.065 91.083 160.776 84.9776 155.485 76.8371C152.636 72.4955 152.975 73.0382 153.789 69.3071C152.975 70.7317 149.583 72.8346 146.259 69.7141Z" fill="#BBBBBB"/>
<path d="M152.364 68.4941C152.025 68.562 151.686 68.6977 151.347 68.7655C151.686 68.7655 152.025 68.6977 152.364 68.4941Z" fill="#BBBBBB"/>
<path d="M157.248 40.9509C160.233 41.9007 164.236 44.3428 166.406 46.1066C166.746 45.5639 167.017 45.0212 167.288 44.5464C167.899 43.3931 168.374 42.3077 168.781 41.2901C171.833 33.4888 170.205 27.7904 168.713 24.4664C164.914 16.1223 162.2 21.278 162.2 25.2126C162.2 29.0115 157.384 30.2326 155.62 35.6596C155.281 36.6772 155.077 37.8982 155.01 39.255C155.01 39.7299 154.942 40.1369 155.01 40.6118C155.62 40.5439 156.434 40.6796 157.248 40.9509Z" fill="#BBBBBB"/>
<path d="M98.1611 92.9842C98.2968 91.8988 98.5003 90.8134 98.636 89.6602C97.6863 98.2756 102.299 110.012 113.967 113.81C109.897 119.509 104.741 131.38 105.148 144.134C97.2793 125.886 96.6009 107.162 98.1611 92.9842Z" fill="#BBBBBB"/>
<path d="M169.866 107.162C170.68 106.755 170.544 105.466 169.662 105.262C158.333 102.345 161.182 109.807 161.861 112.182C163.489 117.948 171.969 117.269 167.627 110.621C166.745 109.061 168.848 107.704 169.866 107.162Z" fill="#011E41"/>
<path d="M127.874 56.6909C129.502 57.6407 131.809 59.1331 133.437 60.2863C134.319 60.8969 134.929 61.5074 135.201 61.9145C135.065 63.4747 134.794 65.5099 135.675 66.8666C138.864 71.6153 144.901 70.462 146.326 69.7836C149.65 72.9042 152.974 70.8012 153.856 69.4445L153.924 69.3766C154.67 68.0199 154.738 66.1882 152.906 68.2234C152.771 68.359 152.635 68.4947 152.431 68.6304C152.092 68.8339 151.753 68.9017 151.414 68.9017C149.107 68.8339 146.055 64.8993 143.07 62.4572C138.05 58.319 133.369 55.8769 128.552 55.0628C127.399 54.7915 126.924 56.1482 127.874 56.6909Z" fill="#011E41"/>
<path d="M164.439 117.608C156.434 112.588 152.025 111.503 155.688 105.737C156.841 103.973 157.791 102.006 158.198 100.581C158.605 99.5636 158.537 98.6138 157.112 98.4103C156.366 98.4782 155.213 99.0209 153.585 100.038C148.429 103.363 144.02 94.3401 141.442 88.2347C124.143 112.046 100.468 86.3352 103.385 67.612C103.588 66.4587 103.792 65.6447 103.927 64.8984C101.01 71.4109 101.417 79.8228 102.299 84.0966C104.945 97.8676 117.359 112.928 134.387 98.139C134.522 98.0033 136.422 96.2395 136.964 95.7647C136.829 96.036 136.693 96.3074 136.557 96.5787C134.726 100.242 133.98 105.805 133.98 107.908C136.015 110.621 140.289 114.556 143.409 115.845C144.087 108.247 148.226 107.026 152.567 103.702C152.499 103.837 152.364 104.041 152.16 104.312C147.751 111.164 150.736 113.47 153.992 115.438C155.756 116.455 156.57 119.779 155.891 122.696C157.452 119.983 161.047 117.88 163.15 118.015C164.575 118.151 165.185 118.219 166.067 118.558C166.203 118.626 166.338 118.626 166.406 118.694C165.863 118.423 164.439 117.608 164.439 117.608Z" fill="#BBBBBB"/>
<path d="M62.1395 21.0751C61.7325 20.736 55.6949 17.3441 53.7954 16.3943C75.1643 7.0327 107.591 8.72865 123.533 14.8341C123.533 14.7662 122.515 9.13568 122.515 9C145.444 20.0576 161.386 37.4241 169.188 53.366C124.889 17.8868 54.813 36.1351 31.5446 73.7173C32.0873 73.7173 42.7378 70.4611 43.2127 70.3254C26.4568 85.1819 10.8541 116.659 9.97216 150.985C5.08784 131.379 5.63054 102.82 9.09027 88.6416C8.88676 88.7773 0.271351 91.2195 0 91.2873C7.46216 50.7203 44.0946 25.4168 62.1395 21.0751Z" fill="#011E41"/>
<path d="M103.995 36.0666C104.877 38.0339 102.706 40.4761 103.181 43.9358C103.249 44.6142 103.453 45.2926 103.724 46.0388C105.623 49.4307 108.405 48.481 111.254 48.9558C116.952 32.6069 103.995 33.828 105.284 20.3283C105.963 13.2731 108.744 12.5947 112.882 20.6675C115.121 25.0091 127.874 29.2829 128.213 42.5791C128.213 42.9183 128.145 43.2575 128.078 43.5966C128.688 43.1218 129.231 42.5791 129.706 42.0364C130.52 41.0188 130.927 39.7299 130.791 38.441C130.723 37.5591 130.588 36.4737 130.316 35.6596C129.977 34.5064 129.57 33.421 129.027 32.3356C128.96 32.1999 128.892 31.9964 128.756 31.8607C124.007 23.3131 115.121 19.9891 113.425 16.5972C109.897 9.67772 96.6009 11.5772 102.978 31.9964C103.249 33.2853 103.52 34.6421 103.995 36.0666Z" fill="#011E41"/>
<path d="M128.146 42.5789C127.807 29.2148 115.053 25.0089 112.815 20.6673C108.609 12.5946 105.895 13.2051 105.217 20.3281C103.928 33.8278 116.885 32.6067 111.186 48.9556C111.119 49.1592 110.372 50.3124 110.305 50.5159C109.762 52.0083 126.45 49.3627 128.078 44.0035C128.078 44.0035 128.146 42.9181 128.146 42.5789Z" fill="white"/>
<path d="M163.556 122.967C162.539 123.306 161.793 123.849 161.182 124.527C161.996 125.409 166.27 128.326 168.237 129.208C165.117 128.869 161.725 127.308 160.165 126.427C159.961 127.308 159.622 128.462 160.3 129.072C169.865 136.738 180.923 134.567 183.704 130.7C184.247 128.801 183.84 124.391 183.84 124.391C177.531 127.173 171.086 126.969 163.556 122.967Z" fill="white"/>
<path d="M156.774 98.2744C155.417 99.0885 154.603 100.649 155.078 103.023C155.688 102.006 156.706 101.191 157.995 100.649C160.573 99.4277 164.1 99.2242 166.271 100.106C165.593 97.8674 159.826 96.375 156.774 98.2744Z" fill="#011E41"/>
</svg>
