<svg enable-background="new 0 0 94 74" height="280.554696" viewBox="0 0 94 74" width="356.436735" xmlns="http://www.w3.org/2000/svg" xmlns:xlink="http://www.w3.org/1999/xlink"><clipPath id="a"><path d="m4 1h86v72h-86z"/></clipPath><path clip-path="url(#a)" d="m85.2 29.4c-.1-1.6-.3-3.9-.5-4.8 1.5-1.7 3.7-5.2 2.7-10.5h2.6l-1.1-2.9c-.1-.3-3-7.6-12.1-9.7-6.5-1.5-10.8.7-12.9 2.1-2.9-1.1-9.8-3.2-16.9-.8-7.1-2.4-14-.3-16.9.9-2.1-1.5-6.4-3.7-12.9-2.2-9.1 2-12 9.4-12.1 9.7l-1.1 2.9h2.6c-1 5.3 1.2 8.8 2.7 10.5-.2.9-.4 3.2-.5 4.8 0 0-.6-.1-1.4-.6s-1.4-1.1-1.4-1.1c.2 4.5 2 23.2 16.2 28.8 1.2.5 2.2 1 3 1.6 4.3 3.2 5 5.2 6.3 9.4 1.6 5.4 6.2 5.4 8.4 5.4h.9c1 .1 2.2 0 3.6 0h2.7 2.6 3.6.9c2.2 0 6.8-.1 8.4-5.4 1.3-4.2 2-6.2 6.3-9.4.8-.6 1.8-1.1 3-1.6 14.1-5.6 15.9-24.3 16.1-28.8 0 0-.6.6-1.4 1.1-.8.4-1.4.6-1.4.6m-17.8 27c-4.9 3.6-5.7 6.1-7.1 10.5-1.3 4.4-5 3.7-7.2 3.9-1.4.1-10.8.1-12.2 0-2.2-.1-5.9.6-7.2-3.9-1.3-4.4-2.2-6.9-7.1-10.5s-13.5-2.4-18.1-24.9c1 1.1 2.6 1.8 2.6 1.8-.6-5.5.7-9.4.7-9.4s-5.4-4.3-2.1-12.3c-1.6.3-2.5.3-2.5.3s2.5-6.5 10.5-8.3 11.9 2.6 11.9 2.6 8.7-4.4 17.4-1c8.7-3.4 17.3 1.1 17.3 1.1s4-4.4 11.9-2.6c8 1.8 10.5 8.3 10.5 8.3s-.9 0-2.5-.3c3.4 8-2.1 12.3-2.1 12.3s1.3 3.9.7 9.4c0 0 1.7-.7 2.6-1.8-4.5 22.4-13.1 21.2-18 24.8" fill="#bc945b"/><path d="m86.9 12.3s-.6 0-1.8-.2c2.5 6.8-1.2 10.9-2.3 11.9.3 1 1.1 4.2.7 8.5.5-.3 1.2-.7 1.7-1.3l.8.4c-3.7 18.2-10 21.1-15.1 23.5-1.2.6-2.4 1.1-3.3 1.8-4.7 3.5-5.6 5.8-6.9 10.3-1.2 4.2-4.5 4.2-6.7 4.2-.4 0-.7 0-1 0-1.4.1-10.9.1-12.3 0-.3 0-.6 0-1 0-2.2 0-5.4 0-6.7-4.2-1.3-4.5-2.2-6.8-6.9-10.3-1-.7-2.1-1.2-3.3-1.8-5.1-2.3-11.4-5.2-15-23.5l.8-.4c.5.6 1.2 1 1.7 1.3-.3-4.3.5-7.5.7-8.5-1-1-4.7-5.1-2.3-11.9-1.1.2-1.7.2-1.8.2h-.5l.3-.7c.1-.3 2.7-6.8 10.8-8.6 7.1-1.6 11.2 1.6 12.2 2.5 1.7-.8 9.3-4 17.3-1 8-3 15.6.2 17.3 1 1-1 5.1-4.1 12.2-2.5 8.1 1.8 10.7 8.3 10.8 8.6l.3.7z"/><path d="m82 17.2c.4-4.8-2.9-8.7-7.2-10.6-2.8-1-6-.3-8.1 1.5-.4.4-.3.7-.2 1.2-1.2.3-3.4-1.3-5.6-1.8-2.4-.5-5.9-1.1-10.6-.6-1.4.3-2.7 1-3.3 1.1-.6-.2-1.9-.9-3.3-1.1-4.7-.5-8.2.1-10.5.6-2.3.6-4.4 2.1-5.6 1.8 0-.5.1-.8-.2-1.2-2.1-1.8-5.3-2.5-8.1-1.5-4.3 2-7.6 5.8-7.2 10.6.2 2 2 4.3 3.9 4.9 0 0-3 9.8 0 15.6-1.6-.2-3.4-2.6-3.4-2.6 1.1 13.8 11.9 17.1 16.4 20 2.1 1.4 4.8 4.1 6.4 6.9.1.3.3.5.4.8.1.2.2.5.3.7v.1c.1.2.2.4.2.6 0 .1 0 .1.1.2.1.2.1.5.2.7.2 1.1 1.1 1.7 2.3 1.9h16.2c1.2-.1 2.1-.7 2.3-1.9 0-.2.1-.5.2-.7 0-.1 0-.1.1-.2.1-.2.1-.4.2-.6v-.1c.1-.2.2-.5.3-.7.1-.3.3-.5.4-.8 1.6-2.7 4.4-5.4 6.4-6.9 4.5-2.9 15.2-6.2 16.4-20 0 0-1.9 2.4-3.4 2.6 3-5.8 0-15.6 0-15.6 1.9-.5 3.7-2.8 4-4.9" fill="#bc945b"/><path d="m61.1 55.1c1.2-4 1.7-8.8 2.5-12.4 1-3.7-1.8-5.3-4.7-6 1.2-.3 2.4-.5 3.4-1 .5-.3.2-1 0-1.8 3.9-.3 6.9-1.4 9.8-4.2.3 1.5-.6 4.5-1.4 6 2.3-1 4.2-3.2 5.1-5.2.6 3.7-1.2 7.2-2.8 10.1.9.3 2.1-.1 2.8-.4-1.5 7.9-9.5 9.9-14.7 14.9"/><path d="m40.1 63.6c1.8 0 4.5.1 7 .1s5.1-.1 7-.1c-.4.9-.9 1.4-1.4 1.6-.6.2-1.1.2-1.1.2-.8.1-2.5 0-3.9 0h-.9c-1.5 0-3.1.1-3.9 0 0 0-.6 0-1.1-.2-.9-.2-1.4-.7-1.7-1.6"/><path d="m33.6 44.2c.7 1.6 2.5 3 2.5 3-.5-2.5-2.9-6.4-.1-8.3 2.3-.6 4.6-.9 7.1-1.1.6-.2 1.5-.5 1.6-1.2-.5-2.6-3.9-1.8-5.7-2.7-1.2-.7-2.4-1.5-2.6-2.8 1.1-3.5 5.5-3.8 9.3-4h1.3 1.3c3.8.2 8.2.5 9.3 4-.3 1.3-1.4 2.1-2.6 2.8-1.9 1-5.2.2-5.7 2.7.1.8 1 1 1.6 1.2 2.5.2 4.8.5 7.1 1.1 2.8 2 .5 5.9-.1 8.3 0 0 1.8-1.4 2.5-3-.5 4-1.4 9.8-2.5 13.7 0 0-.5-2.6-1.7-3.1-.8 2-.1 4.2-1.6 5.9-2.2 1-5 .8-7.6.7-2.6.1-5.4.3-7.6-.7-1.5-1.7-.8-3.9-1.6-5.9-1.2.5-1.7 3.1-1.7 3.1-1.1-3.9-2-9.7-2.5-13.7"/><path d="m21 40.6c-1.6-2.9-3.4-6.4-2.8-10.1.9 2 2.8 4.2 5.1 5.2-.8-1.5-1.6-4.5-1.4-6 2.8 2.8 5.9 3.9 9.8 4.2-.2.8-.5 1.5 0 1.8 1.1.5 2.3.7 3.4 1-3 .7-5.7 2.2-4.7 6 .8 3.6 1.3 8.4 2.5 12.4-5.2-5-13.2-7-14.8-14.9.8.3 2 .7 2.9.4"/><path d="m77.9 12.8c-2-.3-3-.2-3.6.4 1.5 2.4 2.7 5 2.4 7.9-2.5 2.8-5.1 5.2-8.2 7.4.8-1.5 1.3-3.5.5-5-2.3 4.5-7.2 4.7-7.2 4.7.9 1 2.2 1.5 3.4 1.1-1.2 1-2.2 2.2-4 2.2.5-.1 1-.5.1-2.2-1.4-2.7-12.1-6.9-13-7.3-.7-.4-1.3-.9-1.4-1-.1.1-.7.6-1.4 1-.9.5-11.6 4.6-13 7.3-.9 1.6-.4 2.1.1 2.2-1.7 0-2.8-1.2-4-2.2 1.2.4 2.5-.1 3.4-1.1 0 0-5-.2-7.2-4.7-.8 1.5-.2 3.5.5 5-3.2-2.2-5.7-4.6-8.2-7.4-.2-2.9.9-5.5 2.4-7.9-.6-.7-1.6-.7-3.6-.4 1-2.3 5.9-4.8 9-1.9-2.1 2.7-6.2 5.8-3.9 9.5l.8 1c2-3.9 4-6.1 6.1-6.3 3.4 1.1 7.7 6 12.4 6.8 1.2.1 2.1 0 3.1-.7.4-.4.7-.8 1.1-1.2 1-1.3 1.8-3 1.8-3 .3-.6.7-.4.8-.4s.5-.1.8.4c0 0 .8 1.7 1.8 3 .3.4.7.8 1.1 1.2.9.7 1.9.8 3.1.7 4.7-.7 9-5.7 12.4-6.8 2.1.2 4.1 2.4 6.1 6.3l.8-1c2.2-3.7-1.9-6.7-3.9-9.5 2.8-2.8 7.6-.4 8.6 1.9"/><g fill="#fff"><path d="m65.4 19.3c-.9.5-.3.2-1.1.7.2.4.4.9.4 1.5 0 1.8-1.5 3.2-3.4 3.2-1 0-2-.4-2.6-1.1-.6.3-1.1.5-1.6.7 1.1 1.3 4.6 2 7 .6 2.3-1.5 2.1-4.7 1.3-5.6"/><path d="m62.6 21.9 1.1-.4c0-.3-.1-.7-.2-1-.3.2-.6.4-.8.6 0 .1.1.2.1.4-.1.1-.1.2-.2.4"/><path d="m59.4 23.1 1.1-.4c-.1 0-.1-.1-.2-.1-.3.1-.6.3-.9.5"/><path d="m37.1 24.2c-.5-.2-1.1-.4-1.6-.7-.6.7-1.6 1.1-2.6 1.1-1.9 0-3.4-1.4-3.4-3.2 0-.5.1-1 .4-1.5-.8-.5-.2-.2-1.1-.7-.9.9-1 4.1 1.4 5.5 2.2 1.5 5.8.8 6.9-.5"/><path d="m33.5 22.7 1.1.4c-.3-.2-.6-.3-.9-.5-.1 0-.1 0-.2.1"/><path d="m31.4 21.9c0-.1-.1-.3-.1-.4s0-.3.1-.4c-.3-.2-.6-.4-.8-.6-.1.3-.2.6-.2 1z"/><path d="m37.2 43.6c.5 1.7 1.8 3.9 3.7 4.3-.2-1.3-.2-3.7.9-4.8.8.5 1.6 1.3 2.4 1.6 1.5-.7 2.6-2 2.7-2.2s.1.1 0 0c.2.2 1.3 1.4 2.7 2.2.8-.3 1.6-1.1 2.4-1.6 1.2 1.1 1.2 3.5.9 4.8 1.9-.4 3.2-2.6 3.7-4.3.2-1 .3-2.1-.8-2.6-1.5-.4-2.8.5-3.7 1 0 0-1.2-1.6-2.3-1.9-1.6.5-2.7 1.5-2.9 1.7-.3-.2-1.4-1.2-2.9-1.7-1 .3-2.3 1.9-2.3 1.9-.9-.5-2.2-1.3-3.7-1-1.1.5-1.1 1.6-.8 2.6"/><path d="m41.6 53.2c-.9 1.4-2 2.8-1.4 4.7.2.7.9 1.4 1.7 1.4.6-.4 1.2-.9 1.2-.9.6.2 1.2 1.3 2 1.3.6-.1 1.2-.6 1.5-.9.2-.2.3-.3.4-.4h.1c.1.1.2.1.4.4.3.3.9.9 1.5.9.7.1 1.3-1 2-1.3 0 0 .6.5 1.2.9.8 0 1.6-.6 1.7-1.4.6-1.9-.5-3.3-1.4-4.7-.4 1.4-.7 2.9-1.8 4.1-.6-.6-1.1-1.4-2-1.8-.6.3-1.3.9-1.6 1.3v.1-.1c-.3-.4-1.1-.9-1.6-1.3-.9.4-1.4 1.2-2 1.8-1.2-1.2-1.5-2.7-1.9-4.1"/><path d="m49 33.2c.8-.1 1.7-.3 2.5-.6.6-.2 1.1-.5 1.5-.9 0-.1 0-.2-.1-.3s-.2-.3-.4-.3c-.3-.2-.6-.3-.9-.3-.1 0-.3 0-.4 0-1.1.2-1.3 1.7-2.1 2.4 0 0 0 0-.1 0"/><path d="m42.5 32.6c.8.3 1.8.5 2.5.6-.1 0-.1-.1-.2-.1-.7-.7-.9-2.2-2.1-2.4-.1 0-.3 0-.4 0-.3.1-.6.2-.9.3-.2.1-.3.2-.4.3s-.1.2-.1.3c.5.5 1 .8 1.6 1"/></g></svg>